<svg width="609" height="587" viewBox="0 0 609 587" fill="none" xmlns="http://www.w3.org/2000/svg">
<rect x="2" width="606" height="513" fill="white"/>
<path d="M43.4854 443.25L304.5 20.8535L565.515 443.25H43.4854Z" fill="white" stroke="black" stroke-width="3"/>
<line x1="158" y1="257.5" x2="450" y2="257.5" stroke="black" stroke-width="3"/>
<line x1="305.5" y1="259" x2="305.5" y2="442" stroke="black" stroke-width="3"/>
<path d="M304.081 199.288L322.934 145.016H332.118L308.432 209H301.884L304.081 199.288ZM286.459 145.016L305.136 199.288L307.465 209H300.917L277.274 145.016H286.459Z" fill="black"/>
<path d="M227.523 307.016V371H219.042V307.016H227.523Z" fill="black"/>
<path d="M379.427 307.016H400.608C405.413 307.016 409.471 307.748 412.781 309.213C416.121 310.678 418.655 312.846 420.384 315.717C422.142 318.559 423.021 322.06 423.021 326.22C423.021 329.149 422.42 331.83 421.219 334.262C420.047 336.664 418.348 338.715 416.121 340.414C413.924 342.084 411.287 343.329 408.211 344.149L405.838 345.072H385.931L385.843 338.173H400.872C403.919 338.173 406.453 337.646 408.475 336.591C410.496 335.507 412.02 334.057 413.045 332.24C414.07 330.424 414.583 328.417 414.583 326.22C414.583 323.759 414.1 321.605 413.133 319.76C412.166 317.914 410.643 316.493 408.562 315.497C406.512 314.472 403.86 313.959 400.608 313.959H387.908V371H379.427V307.016ZM416.824 371L401.268 341.996L410.101 341.952L425.877 370.473V371H416.824Z" fill="black"/>
</svg>
